<svg width="30" height="30" viewBox="0 0 300 300" fill="none" xmlns="http://www.w3.org/2000/svg">
<path d="M0 0V300H89.4253C97.7112 300 154.775 297.276 154.775 212.838C154.775 160.072 132.379 142.145 121.006 136.824C129.37 130.427 146.02 115.224 146.02 74.4932C146.02 51.8159 144.026 0 86.9239 0H0ZM203.865 27.8716V55.2365H272.966V27.8716H203.865ZM40.6479 51.1824H78.7943C82.3901 51.1824 106.622 48.0786 106.622 85.6419C106.622 117.758 89.1126 121.115 81.9211 121.115H40.6479V51.1824ZM240.135 80.0676C187.879 80.0676 176.975 153.611 176.975 185.473C176.975 280.046 224.814 290.878 240.135 290.878C281.447 290.878 293.173 247.551 297.98 223.48H267.963C266.791 229.688 258.036 249.831 241.386 249.831C213.479 249.831 211.056 214.485 211.056 198.649H299.856C301.654 143.919 286.88 80.0676 240.135 80.0676ZM239.197 121.115C247.522 121.115 254.245 125.042 258.27 132.264C262.296 139.548 265.266 150.19 266.087 164.189H211.056C211.213 160.325 211.76 155.891 212.62 151.014C213.479 146.009 214.808 141.258 216.997 136.824C219.186 132.454 222.234 128.653 225.752 125.676C229.348 122.635 233.803 121.115 239.197 121.115ZM40.6479 166.216H84.7351C93.4901 166.216 114.127 168.433 114.127 209.291C114.127 248.881 88.1355 248.818 84.1098 248.818H40.6479V166.216Z" fill="#F5F5F5"/>
</svg>
