<svg width="50" height="50" viewBox="0 0 109 107" fill="none" xmlns="http://www.w3.org/2000/svg">
<path d="M3.40625 22.5703V84.4297H33.8496C36.6704 84.4297 56.0967 83.868 56.0967 66.457C56.0967 55.5768 48.4725 51.8804 44.6006 50.7832C47.448 49.464 53.1162 46.3292 53.1162 37.9307C53.1162 33.2546 52.4376 22.5703 32.998 22.5703H3.40625ZM72.8086 28.3174V33.96H96.333V28.3174H72.8086ZM17.2441 33.124H30.2305C31.4546 33.124 39.7041 32.484 39.7041 40.2295C39.7041 46.8517 33.7432 47.5439 31.2949 47.5439H17.2441V33.124ZM85.1562 39.0801C67.3666 39.0801 63.6543 54.2445 63.6543 60.8145C63.6543 80.3153 79.9404 82.5488 85.1562 82.5488C99.2203 82.5488 103.212 73.6147 104.849 68.6514H94.6299C94.2307 69.9314 91.2502 74.085 85.582 74.085C76.0818 74.085 75.2568 66.7966 75.2568 63.5312H105.487C106.099 52.2461 101.07 39.0801 85.1562 39.0801ZM84.8369 47.5439C87.671 47.5439 89.9596 48.3538 91.3301 49.8428C92.7006 51.3448 93.7118 53.5392 93.9912 56.4258H75.2568C75.3101 55.629 75.4963 54.7147 75.7891 53.709C76.0818 52.6771 76.5342 51.6975 77.2793 50.7832C78.0244 49.882 79.0623 49.0983 80.2598 48.4844C81.4839 47.8574 83.0007 47.5439 84.8369 47.5439ZM17.2441 56.8438H32.2529C35.2334 56.8438 42.2588 57.3009 42.2588 65.7256C42.2588 73.889 33.4105 73.876 32.04 73.876H17.2441V56.8438Z" fill="black"/>
</svg>
