<svg width="50" height="50" viewBox="0 0 109 107" fill="none" xmlns="http://www.w3.org/2000/svg">
<g clip-path="url(#clip0_37_22)">
<path d="M54.4917 106.918C84.5683 106.918 108.95 82.9838 108.95 53.4592C108.95 23.9345 84.5683 0 54.4917 0C24.4152 0 0.0333252 23.9345 0.0333252 53.4592C0.0333252 82.9838 24.4152 106.918 54.4917 106.918Z" fill="#3A5A98"/>
<path d="M93.0159 15.7365C114.283 36.6136 114.284 70.4635 93.015 91.3422C71.7467 112.219 37.2634 112.219 15.9961 91.3422L93.0159 15.7365Z" fill="#345387"/>
<path d="M108.598 59.4804L69.2041 20.8087L48.751 40.8865L49.9694 42.0827L38.3245 53.5131L47.8558 62.8695L46.6022 64.0995L56.9211 74.2291L45.025 85.907L65.3473 105.856C88.264 101.304 105.953 82.6265 108.598 59.4804Z" fill="#2E4D72"/>
<path d="M44.9707 33.6C44.9707 35.2401 44.9707 42.5655 44.9707 42.5655H38.2797V53.5291H44.9707V86.106H58.7155V53.5291H67.9389C67.9389 53.5291 68.803 48.2711 69.2211 42.5242C68.0205 42.5242 58.7679 42.5242 58.7679 42.5242C58.7679 42.5242 58.7679 36.1452 58.7679 35.0273C58.7679 33.9079 60.2659 32.4012 61.7475 32.4012C63.2266 32.4012 66.3472 32.4012 69.2365 32.4012C69.2365 30.907 69.2365 25.7503 69.2365 20.9877C65.3788 20.9877 60.99 20.9877 59.0543 20.9877C44.6304 20.987 44.9707 31.9608 44.9707 33.6Z" fill="white"/>
</g>
<defs>
<clipPath id="clip0_37_22">
<rect width="109" height="107" fill="white"/>
</clipPath>
</defs>
</svg>
