<svg width="30" height="30" viewBox="0 0 180 300" fill="none" xmlns="http://www.w3.org/2000/svg">
<path d="M150.435 53.6242H179.79V0.0309102H126.444C121.994 -0.154256 67.7461 -1.19118 53.6858 52.4268C53.4821 52.9884 48.9888 65.7402 48.9888 95.5273L0.209839 95.6754V151.886L49.0505 151.744V300.006H123.654V151.873H173.032V95.5149H123.654V77.7822C123.654 66.7586 128.302 53.6242 150.435 53.6242ZM160.687 107.853V139.523H111.31V287.656H61.3949V139.362L12.5542 139.504V107.983L61.5245 107.841L61.3949 101.564C60.753 70.0114 65.2525 56.7411 65.4562 56.1054C77.5908 9.92496 123.926 12.2457 125.913 12.3691L167.446 12.3815V41.2859H150.435C121.592 41.2859 111.316 60.1358 111.316 77.776V107.853H160.687Z" fill="#F5F5F5"/>
</svg>
