<svg width="50" height="50" viewBox="0 0 109 107" fill="none" xmlns="http://www.w3.org/2000/svg">
<path d="M54.5 8.91663C29.4073 8.91663 9.08332 28.8677 9.08332 53.5C9.07817 62.8592 12.0754 71.9825 17.6499 79.5753C23.2243 87.1682 31.0929 92.8451 40.1392 95.8006C42.4101 96.1885 43.2594 94.851 43.2594 93.6785C43.2594 92.6218 43.2003 89.1131 43.2003 85.377C31.7917 87.4413 28.8396 82.6485 27.9312 80.1385C27.418 78.8545 25.2062 74.9 23.276 73.8389C21.6864 73.0052 19.4156 70.941 23.217 70.8875C26.7958 70.8295 29.3482 74.1197 30.2021 75.4572C34.2896 82.1983 40.8205 80.3035 43.4274 79.1354C43.8271 76.2375 45.017 74.2892 46.325 73.1746C36.2198 72.06 25.6604 68.2125 25.6604 51.1593C25.6604 46.3087 27.418 42.3006 30.3156 39.1753C29.8614 38.0608 28.2719 33.491 30.7698 27.3608C30.7698 27.3608 34.5712 26.1927 43.2594 31.935C46.9566 30.9277 50.7766 30.4207 54.6135 30.4281C58.4739 30.4281 62.3344 30.9274 65.9677 31.9305C74.6514 26.1347 78.4573 27.3652 78.4573 27.3652C80.9552 33.4954 79.3656 38.0652 78.9114 39.1798C81.8045 42.3006 83.5667 46.2552 83.5667 51.1593C83.5667 68.2704 72.9528 72.06 62.8476 73.1746C64.4917 74.5656 65.9132 77.2406 65.9132 81.4225C65.9132 87.3833 65.8542 92.176 65.8542 93.6829C65.8542 94.851 66.708 96.242 68.9788 95.7962C77.9942 92.8082 85.828 87.1202 91.3779 79.5328C96.9277 71.9455 99.9141 62.8407 99.9167 53.5C99.9167 28.8677 79.5927 8.91663 54.5 8.91663Z" fill="black"/>
</svg>
