<svg width="30" height="30" viewBox="0 0 300 300" fill="none" xmlns="http://www.w3.org/2000/svg">
<path d="M150 25.0002C80.9373 25.0002 24.9998 80.9377 24.9998 150C24.9856 176.241 33.2349 201.82 48.5775 223.109C63.92 244.397 85.5766 260.314 110.475 268.6C116.725 269.688 119.062 265.938 119.062 262.65C119.062 259.688 118.9 249.85 118.9 239.375C87.4998 245.163 79.3748 231.725 76.8748 224.688C75.4623 221.088 69.3748 210 64.0623 207.025C59.6873 204.688 53.4373 198.9 63.8998 198.75C73.7498 198.588 80.7748 207.813 83.1248 211.563C94.3748 230.463 112.35 225.15 119.525 221.875C120.625 213.75 123.9 208.288 127.5 205.163C99.6873 202.038 70.6248 191.25 70.6248 143.438C70.6248 129.838 75.4623 118.6 83.4373 109.838C82.1873 106.713 77.8123 93.9002 84.6873 76.7127C84.6873 76.7127 95.1498 73.4377 119.062 89.5377C129.238 86.7135 139.752 85.292 150.312 85.3127C160.937 85.3127 171.562 86.7127 181.562 89.5252C205.462 73.2752 215.937 76.7252 215.937 76.7252C222.812 93.9127 218.437 106.725 217.187 109.85C225.15 118.6 230 129.688 230 143.438C230 191.413 200.787 202.038 172.975 205.163C177.5 209.063 181.412 216.563 181.412 228.288C181.412 245 181.25 258.438 181.25 262.663C181.25 265.938 183.6 269.838 189.85 268.588C214.663 260.21 236.224 244.263 251.499 222.99C266.773 201.717 274.993 176.189 275 150C275 80.9377 219.062 25.0002 150 25.0002Z" fill="#F5F5F5"/>
</svg>
