<svg width="50" height="50" viewBox="0 0 109 70" fill="none" xmlns="http://www.w3.org/2000/svg">
<path d="M106.405 27.6994H99.5566V20.9765C99.5566 19.5691 98.3949 18.4288 96.9613 18.4288H87.7164C86.2828 18.4288 85.1212 19.5691 85.1212 20.9765V27.6994H78.2729C76.8392 27.6994 75.6776 28.8398 75.6776 30.2471V39.3224C75.6776 40.7297 76.8392 41.87 78.2729 41.87H85.1212V48.593C85.1212 49.9999 86.2828 51.1406 87.7164 51.1406H96.9613C98.3949 51.1406 99.5566 49.9999 99.5566 48.593V41.87H106.405C107.838 41.87 109 40.7297 109 39.3224V30.2471C109 28.8398 107.838 27.6994 106.405 27.6994Z" fill="black"/>
<path d="M35.2629 16.5809C38.4076 16.5809 41.4302 17.4131 44.0085 18.9883L46.9542 20.9669C47.9809 21.6565 49.3619 21.5345 50.2464 20.6744L58.8377 12.3196C59.3875 11.7849 59.6654 11.0376 59.5958 10.2812C59.5266 9.5247 59.1169 8.8382 58.4788 8.4085L53.4856 5.047C53.3839 4.97873 53.2769 4.91724 53.1666 4.86391L48.3294 2.51943C48.2654 2.48817 48.2 2.45964 48.1335 2.43383C43.9666 0.818975 39.5765 0 35.0854 0C25.8266 0 17.0931 3.48854 10.4936 9.82192C3.79198 16.2535 0.0652175 24.9993 0.000855566 34.4486C-0.0638524 43.8999 3.54388 52.6963 10.1586 59.2169C16.7221 65.6875 26.0342 69.3988 35.7075 69.3988C45.2781 69.3988 54.2576 65.751 60.3433 59.3908C65.1638 54.3529 68.1221 47.6238 68.8996 39.931C68.9069 39.858 68.9114 39.785 68.912 39.7119L69.002 32.8011C69.0041 32.6581 68.9937 32.5154 68.9709 32.3741L68.5937 30.0123C68.3961 28.7728 67.3078 27.8591 66.0299 27.8591H36.0387C34.6051 27.8591 33.4434 28.9997 33.4434 30.4067V40.591C33.4434 41.998 34.6051 43.1387 36.0387 43.1387H51.3284C50.6277 44.6465 49.5235 46.2366 48.1273 47.7183C45.0819 50.9514 40.5402 52.8057 35.6667 52.8057C30.6897 52.8057 25.9235 50.8912 22.5902 47.5535C15.6515 40.6077 15.7311 28.5051 22.7594 21.6544C26.0681 18.4305 30.6257 16.5809 35.2629 16.5809Z" fill="black"/>
</svg>
