<svg width="30" height="30" viewBox="0 0 300 300" fill="none" xmlns="http://www.w3.org/2000/svg">
<path d="M292.857 119.74H274.009V90.6777C274.009 84.5942 270.812 79.6648 266.866 79.6648H241.421C237.476 79.6648 234.279 84.5942 234.279 90.6777V119.74H215.43C211.484 119.74 208.287 124.67 208.287 130.753V169.984C208.287 176.068 211.484 180.997 215.43 180.997H234.279V210.06C234.279 216.142 237.476 221.072 241.421 221.072H266.866C270.812 221.072 274.009 216.142 274.009 210.06V180.997H292.857C296.803 180.997 300 176.068 300 169.984V130.753C300 124.67 296.803 119.74 292.857 119.74Z" fill="#F5F5F5"/>
<path d="M97.0536 71.6767C105.709 71.6767 114.028 75.2742 121.124 82.0832L129.232 90.6365C132.057 93.6174 135.858 93.0902 138.293 89.3723L161.938 53.2557C163.452 50.9444 164.216 47.714 164.025 44.4438C163.834 41.1737 162.707 38.2061 160.951 36.3486L147.208 21.8174C146.928 21.5222 146.634 21.2565 146.33 21.0259L133.016 10.8911C132.84 10.756 132.66 10.6326 132.477 10.521C121.009 3.5403 108.926 0 96.5651 0C71.0823 0 47.0451 15.0804 28.8814 42.4586C10.4366 70.2611 0.179497 108.068 0.00235477 148.916C-0.17574 189.772 9.75377 227.798 27.9595 255.985C46.0242 283.956 71.6537 300 98.2775 300C124.618 300 149.333 284.231 166.082 256.737C179.35 234.959 187.492 205.87 189.632 172.615C189.652 172.3 189.664 171.984 189.666 171.668L189.914 141.794C189.919 141.176 189.891 140.559 189.828 139.948L188.79 129.738C188.246 124.38 185.251 120.43 181.734 120.43H99.1889C95.2432 120.43 92.046 125.361 92.046 131.443V175.469C92.046 181.551 95.2432 186.481 99.1889 186.481H141.271C139.342 193 136.303 199.873 132.46 206.278C124.078 220.255 111.578 228.27 98.1651 228.27C84.467 228.27 71.3489 219.995 62.1746 205.566C43.0775 175.54 43.2966 123.223 62.6404 93.6086C71.747 79.6721 84.2908 71.6767 97.0536 71.6767Z" fill="#F5F5F5"/>
</svg>
