<svg width="30" height="30" viewBox="0 0 234 300" fill="none" xmlns="http://www.w3.org/2000/svg">
<path d="M230.562 135.126L196.455 92.5397V21.8593C196.455 15.4683 191.273 10.287 184.882 10.287H160.13C153.739 10.287 148.558 15.4683 148.558 21.8593V32.7372L125.811 4.33884C123.615 1.59543 120.292 0 116.779 0C113.265 0 109.942 1.59543 107.746 4.33884L2.53999 135.694C-0.241987 139.167 -0.785113 143.927 1.14052 147.939C3.06615 151.95 7.12262 154.501 11.5725 154.501H17.6426V288.428C17.6426 294.819 22.8239 300 29.2149 300H204.344C210.735 300 215.916 294.819 215.916 288.428V154.501H221.986C221.997 154.501 222.006 154.501 222.017 154.501C228.408 154.501 233.589 149.32 233.589 142.929C233.588 139.921 232.441 137.183 230.562 135.126ZM72.6218 242.501V176.169H103.54C103.54 176.217 103.532 176.261 103.532 176.309V242.501H72.6218V242.501ZM126.671 176.169H157.589V242.501H126.677V176.309C126.677 176.261 126.671 176.215 126.671 176.169ZM116.779 64.6984C133.256 64.6984 146.661 78.1037 146.661 94.5811C146.661 111.058 133.256 124.464 116.779 124.464C100.301 124.464 86.8958 111.058 86.8958 94.5811C86.8958 78.1037 100.301 64.6984 116.779 64.6984Z" fill="#F5F5F5" fill-opacity="0.65"/>
</svg>
