<svg width="30" height="30" viewBox="0 0 300 300" fill="none" xmlns="http://www.w3.org/2000/svg">
<path d="M199.999 87.5006C199.999 80.597 205.596 75.0006 212.499 75.0006C219.403 75.0006 224.999 80.597 224.999 87.5006C224.999 94.4041 219.403 100.001 212.499 100.001C205.596 100.001 199.999 94.4041 199.999 87.5006Z" fill="#F5F5F5"/>
<path fill-rule="evenodd" clip-rule="evenodd" d="M149.999 90.6256C117.207 90.6256 90.6243 117.209 90.6243 150C90.6243 182.792 117.207 209.375 149.999 209.375C182.791 209.375 209.374 182.792 209.374 150C209.374 117.209 182.791 90.6256 149.999 90.6256ZM109.374 150C109.374 127.564 127.563 109.376 149.999 109.376C172.436 109.376 190.624 127.564 190.624 150C190.624 172.437 172.436 190.625 149.999 190.625C127.563 190.625 109.374 172.437 109.374 150Z" fill="#F5F5F5"/>
<path fill-rule="evenodd" clip-rule="evenodd" d="M215.754 35.6323C172.422 30.7893 127.63 30.7893 84.2981 35.6323C59.1473 38.4432 38.8432 58.2559 35.8862 83.5375C30.7046 127.842 30.7046 172.598 35.8862 216.901C38.8432 242.183 59.1473 261.996 84.2981 264.806C127.63 269.65 172.422 269.65 215.754 264.806C240.904 261.996 261.209 242.183 264.165 216.901C269.348 172.598 269.348 127.842 264.165 83.5375C261.209 58.2559 240.905 38.4432 215.754 35.6323ZM86.3807 54.2663C128.329 49.5779 171.723 49.5779 213.672 54.2663C230.298 56.1245 243.617 69.2446 245.543 85.7156C250.555 128.573 250.555 171.866 245.543 214.724C243.617 231.194 230.298 244.315 213.672 246.173C171.723 250.861 128.329 250.861 86.3807 246.173C69.7543 244.315 56.4357 231.194 54.5093 214.724C49.4968 171.866 49.4968 128.573 54.5093 85.7156C56.4357 69.2446 69.7543 56.1245 86.3807 54.2663Z" fill="#F5F5F5"/>
</svg>
