<svg width="30" height="30" viewBox="0 0 300 300" fill="none" xmlns="http://www.w3.org/2000/svg">
<path d="M150 0C67.157 0 0 67.157 0 150C0 232.843 67.157 300 150 300C232.843 300 300 232.843 300 150C300 67.157 232.843 0 150 0ZM93.7964 251.558H51.6276V115.881H93.7964V251.558V251.558ZM72.7212 97.335C59.2051 97.335 48.2639 86.3785 48.2639 72.8808C48.267 59.3954 59.2051 48.4389 72.7212 48.4389C86.2005 48.4389 97.157 59.3954 97.157 72.8808C97.157 86.3816 86.1974 97.335 72.7212 97.335ZM251.733 251.558H209.598V185.576C209.598 169.841 209.306 149.604 187.679 149.604C165.747 149.604 162.374 166.742 162.374 184.438V251.555H120.242V115.881H160.686V134.421H161.254C166.886 123.753 180.635 112.508 201.152 112.508C243.852 112.508 251.733 140.609 251.733 177.14V251.558Z" fill="#F5F5F5"/>
</svg>
