<svg width="30" height="30" viewBox="0 0 300 193" fill="none" xmlns="http://www.w3.org/2000/svg">
<path d="M265.743 85.1915C269.894 86.9649 275.255 88.2154 281.846 88.9432C284.87 89.1994 287.781 89.3122 290.662 89.3122C294.004 89.3122 297.14 89.1277 300 88.7587C296.402 92.1311 291.769 95.0525 286.172 97.5433C280.514 100.044 273.236 101.285 264.257 101.285C260.146 116.64 252.53 130.437 241.398 142.574C230.307 154.751 217.105 164.807 201.811 172.741C186.517 180.674 169.717 186.189 151.317 189.316C140.964 191.181 130.622 192.104 120.228 192.104C112.386 192.104 104.514 191.54 96.6823 190.423C78.5287 188.065 61.0927 182.53 44.2205 173.848C27.3585 165.186 12.6286 152.793 0 136.7C7.13432 143.055 15.4577 147.986 24.9394 151.409C34.421 154.823 44.2717 156.565 54.5017 156.565C64.7419 156.565 74.8078 154.69 84.679 151.03C94.5194 147.361 103.376 141.631 111.269 133.891C109.772 134.127 108.276 134.26 106.748 134.26C103.888 134.26 101.274 133.758 98.9169 132.764C95.155 131.267 92.5616 129.227 91.1573 126.675C89.7017 124.123 89.7017 121.304 91.1573 118.239C92.5616 115.184 96.2108 112.478 102.095 110.121C100.085 110.336 98.1276 110.469 96.2928 110.469C93.3919 110.469 90.7165 110.223 88.2667 109.752C84.105 108.983 80.5378 107.702 77.4832 105.908C74.3773 104.073 71.8762 102.115 69.8671 99.9932C67.8785 97.8611 66.1872 95.5957 64.8034 93.2279C67.325 90.983 70.1131 89.2712 73.2395 88.1129C76.3659 86.9238 80.4763 86.1858 85.5913 85.9501C74.1313 83.4592 65.9412 79.7383 61.0825 74.9001C56.2135 70.0311 53.1178 64.4241 51.9083 58.0586C55.2909 57.5358 58.6428 56.9515 62.0972 56.275C65.5106 55.5677 68.2475 55.496 70.2566 55.9777C60.4879 51.1088 53.7124 45.43 49.8172 38.9415C46.4653 33.2115 44.774 27.8197 44.774 22.8278C44.774 22.2025 44.8355 21.526 44.9687 20.7674C62.5688 26.8972 77.3909 32.5247 89.425 37.6192C101.49 42.7546 112.191 47.7466 121.55 52.6361C125.168 54.0916 128.766 56.3365 132.415 59.3501L144.214 69.4878C146.725 62.8455 149.554 56.275 152.793 49.7147C156.084 43.1442 159.538 36.8709 163.218 30.8846C166.898 24.9086 171.029 19.3939 175.652 14.4019C180.275 9.43042 185.533 5.33023 191.376 2.05009C191.14 4.89971 189.664 7.73909 186.907 10.476C190.289 7.62634 193.928 5.31998 197.844 3.5364C201.811 1.79383 205.962 0.635528 210.309 0C209.806 2.87013 207.766 5.22773 204.117 7.02156C200.499 8.83589 197.342 10.2402 194.584 11.2242C195.568 10.9885 197.557 10.3325 200.468 9.28691C203.41 8.22086 206.536 7.23682 209.847 6.38603C213.189 5.50449 216.151 4.90997 218.857 4.70496C221.523 4.4487 223.132 4.92022 223.614 6.19127C224.352 7.68784 223.921 8.96915 222.312 10.0249C220.703 11.091 218.714 11.9725 216.397 12.7618C214.122 13.4998 211.774 14.1046 209.499 14.6274C207.172 15.1399 205.655 15.5089 204.917 15.7344L197.977 18.1638C199.341 18.0305 200.724 17.9793 202.088 17.9793C207.818 17.9793 213.466 18.8403 218.939 20.5932C225.694 22.7253 231.876 25.9747 237.493 30.3618C243.089 34.6978 248.04 39.8333 252.264 45.7068C256.507 51.5803 259.634 57.8741 261.633 64.6086L262.391 67.612C262.606 68.6063 262.883 69.7133 263.129 70.9536C265.63 71.7327 268.613 72.1837 272.139 72.3785C275.624 72.5527 279.079 72.3784 282.533 71.8147C285.936 71.2611 289.063 70.5539 291.851 69.6723C294.68 68.801 296.915 67.981 298.524 67.243C296.535 72.1222 292.691 76.2019 287.002 79.5025C281.293 82.7827 274.2 84.679 265.743 85.1915Z" fill="#F5F5F5"/>
</svg>
