<svg width="50" height="50" viewBox="0 0 109 107" fill="none" xmlns="http://www.w3.org/2000/svg">
<g clip-path="url(#clip0_37_42)">
<path d="M54.5 107C84.5995 107 109 83.0472 109 53.5C109 23.9528 84.5995 0 54.5 0C24.4005 0 0 23.9528 0 53.5C0 83.0472 24.4005 107 54.5 107Z" fill="#65A2D9"/>
<path d="M83.6689 29.1169C77.9841 33.9589 72.3319 38.2025 67.7119 44.1329C56.3476 57.5856 42.4603 76.6718 23.5614 73.8266L57.328 106.929C85.9524 105.493 108.74 82.3747 108.994 53.9773L83.6689 29.1169Z" fill="#3A7CA5"/>
<path d="M84.7032 33.9539C83.3167 34.5576 81.878 35.0337 80.4011 35.3781C82.0285 33.8607 83.2517 31.9621 83.9417 29.8434C84.1389 29.2388 83.4693 28.7153 82.913 29.0392C80.8586 30.2356 78.6459 31.1324 76.336 31.7063C76.2023 31.7397 76.0643 31.7564 75.9253 31.7564C75.504 31.7564 75.0959 31.6032 74.7734 31.3249C72.3162 29.1987 69.1552 28.0277 65.8735 28.0277C64.4531 28.0277 63.0197 28.2451 61.6123 28.6737C57.2508 30.0014 53.8854 33.5334 52.829 37.8905C52.4331 39.5244 52.3262 41.1607 52.5105 42.7523C52.5312 42.9354 52.4437 43.0629 52.3894 43.1227C52.2936 43.2276 52.1586 43.288 52.0179 43.288C52.0026 43.288 51.986 43.2873 51.9702 43.2859C42.4229 42.4148 33.8134 37.8999 27.7286 30.5719C27.4188 30.198 26.8232 30.244 26.5758 30.6601C25.3845 32.6676 24.7547 34.9629 24.7547 37.2987C24.7547 40.878 26.2203 44.2516 28.7649 46.7111C27.6947 46.4618 26.6588 46.0695 25.6963 45.5446C25.2305 45.2909 24.6581 45.6177 24.6515 46.1404C24.5855 51.458 27.7571 56.1898 32.5082 58.3204C32.4124 58.3225 32.3166 58.3233 32.2208 58.3233C31.4678 58.3233 30.7048 58.2527 29.9546 58.1112C29.4302 58.0136 28.9898 58.5014 29.1524 59C30.695 63.7268 34.8402 67.2106 39.8014 68.001C35.6843 70.7142 30.8892 72.1451 25.8992 72.1451L24.3438 72.1445C23.8638 72.1445 23.4582 72.4515 23.3369 72.9073C23.2166 73.3556 23.4378 73.8296 23.847 74.063C29.4698 77.2755 35.884 78.9731 42.3978 78.9731C48.0999 78.9731 53.4336 77.8628 58.2509 75.6716C62.6673 73.6634 66.5698 70.7928 69.8505 67.1393C72.907 63.7358 75.2964 59.8071 76.9536 55.4615C78.5328 51.3203 79.3678 46.9 79.3678 42.6813V42.4798C79.3678 41.8025 79.6797 41.1651 80.2244 40.7306C82.2908 39.0834 84.0905 37.1449 85.5727 34.9685C85.9644 34.3942 85.347 33.6736 84.7032 33.9539Z" fill="white"/>
<path d="M84.7032 33.9539C83.3162 34.5576 81.8779 35.0337 80.4011 35.3781C82.0284 33.8607 83.2517 31.9621 83.9419 29.8434C84.139 29.2388 83.4695 28.7153 82.9132 29.0392C80.8588 30.2356 78.646 31.1324 76.3361 31.7063C76.2024 31.7397 76.0645 31.7564 75.9255 31.7564C75.5042 31.7564 75.0961 31.6032 74.7735 31.3249C72.3163 29.1987 69.1553 28.0277 65.8736 28.0277C64.4534 28.0277 63.0198 28.2451 61.6124 28.6737C58.5634 29.6018 56.0042 31.6095 54.3773 34.2214V77.1629C55.7019 76.7388 56.9944 76.2427 58.2515 75.6709C62.6679 73.6628 66.5704 70.7922 69.8511 67.1387C72.9075 63.735 75.297 59.8065 76.9542 55.4609C78.5334 51.3196 79.3683 46.8994 79.3683 42.6807V42.4792C79.3683 41.8019 79.6802 41.1645 80.225 40.73C82.2913 39.0828 84.0911 37.1442 85.5733 34.9679C85.9643 34.3942 85.3469 33.6736 84.7032 33.9539Z" fill="#D1D1D1"/>
</g>
<defs>
<clipPath id="clip0_37_42">
<rect width="109" height="107" fill="white"/>
</clipPath>
</defs>
</svg>
