<svg width="30" height="30" viewBox="0 0 310 219" fill="none" xmlns="http://www.w3.org/2000/svg">
<path d="M297.917 18.728C286.727 5.426 266.067 0 226.611 0H83.386C43.027 0 22.017 5.776 10.869 19.938C0 33.746 0 54.091 0 82.249V135.918C0 190.469 12.896 218.166 83.386 218.166H226.612C260.828 218.166 279.788 213.378 292.054 201.639C304.633 189.601 310 169.946 310 135.918V82.249C310 52.554 309.159 32.089 297.917 18.728ZM199.021 116.493L133.983 150.484C132.529 151.244 130.939 151.621 129.351 151.621C127.553 151.621 125.759 151.137 124.17 150.175C121.178 148.362 119.351 145.119 119.351 141.621V73.857C119.351 70.365 121.173 67.125 124.159 65.311C127.146 63.497 130.861 63.373 133.96 64.983L198.998 98.755C202.307 100.473 204.385 103.889 204.39 107.616C204.394 111.346 202.325 114.767 199.021 116.493Z" fill="#F5F5F5"/>
</svg>
